<svg id="Capa_1" enable-background="new 0 0 512 512" height="512" viewBox="0 0 512 512" width="512" xmlns="http://www.w3.org/2000/svg"><g><path d="m277.873 7.5h-43.745c-8.631 0-15.627 6.997-15.627 15.627 0 4.085 1.6 8.008 4.456 10.928l18.043 18.445h30l18.044-18.445c2.857-2.92 4.456-6.843 4.456-10.928 0-8.63-6.997-15.627-15.627-15.627z" fill="#928bff"/><path d="m241 52.5v84.245h30v-84.245c0-8.284-6.716-15-15-15s-15 6.716-15 15z" fill="#83b3f1"/><path d="m173.927 97.055 32.239 77.832 27.716-11.48-32.239-77.832c-3.17-7.654-11.945-11.288-19.598-8.118-7.654 3.17-11.288 11.945-8.118 19.598z" fill="#98d3f3"/><path d="m95.75 64.818-30.932 30.932c-6.103 6.103-6.103 15.998 0 22.1 2.889 2.889 6.794 4.531 10.878 4.576l25.801.284 21.213-21.213-.284-25.801c-.045-4.085-1.688-7.99-4.576-10.878-6.102-6.103-15.997-6.103-22.1 0z" fill="#928bff"/><path d="m101.497 122.71 59.57 59.57 21.213-21.213-59.57-59.57c-5.858-5.858-15.355-5.858-21.213 0s-5.858 15.355 0 21.213z" fill="#83b3f1"/><path d="m85.575 201.644 77.832 32.239 11.48-27.716-77.832-32.239c-7.654-3.17-16.428.464-19.598 8.118-3.17 7.653.464 16.427 8.118 19.598z" fill="#98d3f3"/><path d="m7.5 234.127v43.745c0 8.631 6.997 15.627 15.627 15.627 4.085 0 8.008-1.6 10.928-4.456l18.445-18.043v-30l-18.445-18.044c-2.92-2.857-6.843-4.456-10.928-4.456-8.63 0-15.627 6.997-15.627 15.627z" fill="#928bff"/><path d="m52.5 271h84.245v-30h-84.245c-8.284 0-15 6.716-15 15s6.716 15 15 15z" fill="#83b3f1"/><path d="m97.055 338.073 77.832-32.239-11.48-27.716-77.832 32.239c-7.654 3.17-11.288 11.945-8.118 19.598 3.17 7.654 11.945 11.288 19.598 8.118z" fill="#98d3f3"/><path d="m64.818 416.25 30.933 30.933c6.103 6.103 15.998 6.103 22.1 0 2.889-2.889 4.531-6.794 4.576-10.879l.284-25.801-21.213-21.213-25.801.284c-4.085.045-7.99 1.688-10.879 4.576-6.103 6.102-6.103 15.997 0 22.1z" fill="#928bff"/><path d="m122.71 410.503 59.57-59.57-21.213-21.213-59.57 59.57c-5.858 5.858-5.858 15.355 0 21.213s15.355 5.858 21.213 0z" fill="#83b3f1"/><path d="m201.644 426.425 32.239-77.832-27.716-11.48-32.239 77.832c-3.17 7.654.464 16.428 8.118 19.598 7.653 3.17 16.427-.464 19.598-8.118z" fill="#98d3f3"/><path d="m234.127 504.5h43.745c8.631 0 15.627-6.997 15.627-15.627 0-4.085-1.6-8.008-4.456-10.928l-18.043-18.445h-30l-18.044 18.445c-2.857 2.92-4.456 6.843-4.456 10.928 0 8.63 6.997 15.627 15.627 15.627z" fill="#928bff"/><path d="m271 459.5v-84.245h-30v84.245c0 8.284 6.716 15 15 15s15-6.716 15-15z" fill="#83b3f1"/><path d="m338.073 414.945-32.239-77.832-27.716 11.48 32.239 77.832c3.17 7.654 11.945 11.288 19.598 8.118 7.654-3.17 11.288-11.945 8.118-19.598z" fill="#98d3f3"/><path d="m416.25 447.182 30.933-30.933c6.103-6.103 6.103-15.997 0-22.1-2.889-2.889-6.794-4.531-10.879-4.576l-25.801-.284-21.213 21.213.284 25.801c.045 4.085 1.688 7.99 4.576 10.879 6.102 6.103 15.997 6.103 22.1 0z" fill="#928bff"/><path d="m410.503 389.29-59.57-59.57-21.213 21.213 59.57 59.57c5.858 5.858 15.355 5.858 21.213 0s5.858-15.355 0-21.213z" fill="#83b3f1"/><path d="m426.425 310.356-77.832-32.239-11.48 27.716 77.832 32.239c7.654 3.17 16.428-.464 19.598-8.118 3.17-7.653-.464-16.427-8.118-19.598z" fill="#98d3f3"/><path d="m504.5 277.873v-43.745c0-8.631-6.997-15.627-15.627-15.627-4.085 0-8.008 1.6-10.928 4.456l-18.445 18.043v30l18.445 18.044c2.92 2.857 6.843 4.456 10.928 4.456 8.63 0 15.627-6.997 15.627-15.627z" fill="#928bff"/><path d="m459.5 241h-84.245v30h84.245c8.284 0 15-6.716 15-15s-6.716-15-15-15z" fill="#83b3f1"/><path d="m414.945 173.927-77.832 32.239 11.48 27.716 77.832-32.239c7.654-3.17 11.288-11.945 8.118-19.598-3.17-7.654-11.945-11.288-19.598-8.118z" fill="#98d3f3"/><path d="m447.182 95.75-30.932-30.932c-6.103-6.103-15.998-6.103-22.1 0-2.889 2.889-4.531 6.794-4.576 10.879l-.284 25.801 21.213 21.213 25.801-.284c4.085-.045 7.99-1.688 10.879-4.576 6.102-6.103 6.102-15.998-.001-22.101z" fill="#928bff"/><path d="m389.29 101.497-59.57 59.57 21.213 21.213 59.57-59.57c5.858-5.858 5.858-15.355 0-21.213s-15.356-5.858-21.213 0z" fill="#83b3f1"/><path d="m310.356 85.575-32.239 77.832 27.716 11.48 32.239-77.832c3.17-7.654-.464-16.428-8.118-19.598-7.653-3.17-16.427.464-19.598 8.118z" fill="#98d3f3"/><circle cx="256" cy="256" fill="#83b3f1" r="150"/><path d="m256 136v240c66.274 0 120-53.726 120-120s-53.726-120-120-120z" fill="#736dd9"/><path d="m346 256c0-66.274-40.294-120-90-120-66.274 0-120 53.726-120 120s53.726 120 120 120c49.706 0 90-53.726 90-120z" fill="#928bff"/><g fill="#736dd9"><circle cx="256" cy="256" r="15"/><circle cx="181" cy="256" r="15"/><circle cx="256" cy="181" r="15"/><circle cx="256" cy="331" r="15"/></g><circle cx="213.574" cy="298.426" r="7.5"/><circle cx="298.426" cy="298.426" r="7.5"/><circle cx="316" cy="256" r="7.5"/><circle cx="213.574" cy="213.574" r="7.5"/><path d="m256 278.5c12.407 0 22.5-10.093 22.5-22.5s-10.093-22.5-22.5-22.5-22.5 10.093-22.5 22.5 10.093 22.5 22.5 22.5zm0-30c4.136 0 7.5 3.364 7.5 7.5s-3.364 7.5-7.5 7.5-7.5-3.364-7.5-7.5 3.364-7.5 7.5-7.5z"/><path d="m158.5 256c0 12.407 10.093 22.5 22.5 22.5s22.5-10.093 22.5-22.5-10.093-22.5-22.5-22.5-22.5 10.093-22.5 22.5zm22.5-7.5c4.136 0 7.5 3.364 7.5 7.5s-3.364 7.5-7.5 7.5-7.5-3.364-7.5-7.5 3.364-7.5 7.5-7.5z"/><path d="m256 203.5c12.407 0 22.5-10.093 22.5-22.5s-10.093-22.5-22.5-22.5-22.5 10.093-22.5 22.5 10.093 22.5 22.5 22.5zm0-30c4.136 0 7.5 3.364 7.5 7.5s-3.364 7.5-7.5 7.5-7.5-3.364-7.5-7.5 3.364-7.5 7.5-7.5z"/><path d="m256 353.5c12.407 0 22.5-10.093 22.5-22.5s-10.093-22.5-22.5-22.5-22.5 10.093-22.5 22.5 10.093 22.5 22.5 22.5zm0-30c4.136 0 7.5 3.364 7.5 7.5s-3.364 7.5-7.5 7.5-7.5-3.364-7.5-7.5 3.364-7.5 7.5-7.5z"/><path d="m488.873 211c-6.082 0-11.826 2.342-16.172 6.595l-16.26 15.905h-44.543c-.791-5.507-1.875-10.982-3.246-16.377l20.644-8.55c11.462-4.749 16.924-17.936 12.176-29.398s-17.935-16.923-29.398-12.177l-20.65 8.554c-2.845-4.777-5.949-9.414-9.286-13.871l31.505-31.505 22.743-.25c6.082-.067 11.799-2.472 16.1-6.772 9.017-9.018 9.017-23.69 0-32.707l-30.933-30.933c-9.016-9.017-23.688-9.017-32.707 0-4.3 4.3-6.706 10.018-6.772 16.1l-.25 22.743-31.505 31.505c-4.457-3.337-9.094-6.441-13.871-9.286l8.554-20.65c4.748-11.462-.715-24.649-12.177-29.398-11.461-4.748-24.65.715-29.398 12.177l-8.55 20.643c-5.395-1.37-10.87-2.455-16.377-3.246v-44.543l15.904-16.259c4.254-4.347 6.596-10.091 6.596-16.173 0-12.752-10.375-23.127-23.127-23.127h-43.745c-12.753 0-23.128 10.375-23.128 23.127 0 6.082 2.342 11.826 6.595 16.172l15.905 16.26v44.543c-5.507.791-10.982 1.875-16.377 3.246l-8.55-20.644c-4.748-11.461-17.938-16.922-29.398-12.176-11.462 4.749-16.924 17.936-12.177 29.398l8.554 20.651c-4.777 2.845-9.414 5.948-13.871 9.285l-31.505-31.505-.25-22.743c-.067-6.082-2.472-11.799-6.772-16.1-9.018-9.018-23.69-9.018-32.707 0l-30.932 30.933c-4.368 4.368-6.774 10.176-6.774 16.354s2.406 11.985 6.774 16.354c4.3 4.3 10.018 6.706 16.099 6.772l22.743.25 31.505 31.505c-3.337 4.458-6.441 9.094-9.285 13.871l-20.651-8.554c-11.462-4.748-24.649.715-29.398 12.177-4.748 11.462.715 24.65 12.177 29.398l20.643 8.55c-1.37 5.395-2.455 10.871-3.246 16.377h-44.543l-16.259-15.905c-4.347-4.254-10.091-6.596-16.173-6.596-12.752 0-23.127 10.375-23.127 23.127v43.745c0 12.753 10.375 23.128 23.127 23.128 6.082 0 11.826-2.342 16.172-6.595l16.26-15.905h44.543c.791 5.506 1.875 10.982 3.246 16.377l-20.643 8.55c-11.462 4.748-16.925 17.936-12.177 29.398 4.749 11.462 17.935 16.924 29.398 12.177l20.651-8.554c2.844 4.776 5.948 9.413 9.285 13.871l-31.505 31.505-22.743.25c-6.082.067-11.8 2.472-16.099 6.772-4.368 4.368-6.774 10.176-6.774 16.354 0 6.177 2.406 11.985 6.774 16.353l30.932 30.933c4.368 4.368 10.176 6.774 16.354 6.774s11.985-2.406 16.354-6.774c4.3-4.3 6.706-10.018 6.772-16.099l.25-22.743 31.505-31.505c4.458 3.337 9.094 6.441 13.871 9.285l-8.554 20.651c-4.748 11.462.715 24.649 12.177 29.398 11.463 4.749 24.65-.714 29.398-12.177l8.55-20.643c5.395 1.37 10.871 2.455 16.377 3.246v44.543l-15.906 16.258c-4.253 4.348-6.595 10.091-6.595 16.173 0 12.752 10.375 23.127 23.127 23.127h43.745c12.753 0 23.128-10.375 23.128-23.127 0-6.082-2.342-11.825-6.595-16.173l-15.905-16.259v-44.543c5.506-.791 10.982-1.875 16.377-3.246l8.55 20.643c4.749 11.462 17.938 16.924 29.398 12.177 11.462-4.749 16.924-17.936 12.177-29.398l-8.554-20.651c4.776-2.844 9.413-5.948 13.871-9.285l31.505 31.505.25 22.743c.067 6.082 2.472 11.799 6.772 16.099 4.368 4.368 10.176 6.774 16.354 6.774s11.985-2.406 16.353-6.774l30.933-30.932c4.368-4.368 6.774-10.176 6.774-16.354s-2.406-11.986-6.773-16.353c-4.3-4.301-10.018-6.706-16.1-6.773l-22.743-.25-31.505-31.505c3.337-4.457 6.44-9.093 9.285-13.871l20.651 8.554c11.462 4.749 24.649-.715 29.398-12.177 4.748-11.462-.714-24.649-12.177-29.398l-20.643-8.55c1.37-5.395 2.455-10.87 3.246-16.377h44.543l16.258 15.904c4.347 4.253 10.091 6.596 16.173 6.596 12.752.001 23.127-10.374 23.127-23.126v-43.745c0-12.753-10.375-23.128-23.127-23.128zm8.127 66.873c0 4.481-3.646 8.127-8.127 8.127-2.137 0-4.155-.823-5.683-2.318l-18.445-18.043c-1.401-1.371-3.284-2.139-5.245-2.139h-54.245c-3.855 0-7.083 2.923-7.463 6.759-.901 9.076-2.691 18.109-5.32 26.848-1.109 3.688.754 7.616 4.312 9.09l26.771 11.089c3.821 1.583 5.642 5.979 4.059 9.799-1.582 3.821-5.978 5.642-9.799 4.059l-26.776-11.091c-3.557-1.474-7.651-.015-9.475 3.375-4.318 8.024-9.442 15.678-15.229 22.749-2.44 2.982-2.224 7.329.501 10.053l38.363 38.363c1.386 1.386 3.26 2.175 5.221 2.196l25.801.284c2.138.023 4.146.869 5.658 2.38 1.535 1.535 2.38 3.576 2.38 5.747 0 2.17-.845 4.211-2.38 5.747l-30.933 30.933c-1.535 1.535-3.576 2.38-5.746 2.38-2.171 0-4.212-.845-5.747-2.38-1.511-1.511-2.356-3.521-2.38-5.658l-.284-25.801c-.021-1.96-.81-3.834-2.196-5.221l-38.363-38.363c-2.724-2.724-7.07-2.942-10.053-.501-7.074 5.788-14.728 10.912-22.75 15.229-3.39 1.824-4.848 5.918-3.375 9.475l11.091 26.776c1.583 3.821-.238 8.217-4.059 9.799-3.821 1.583-8.217-.238-9.799-4.059l-11.089-26.771c-1.474-3.558-5.4-5.422-9.089-4.312-8.742 2.629-17.775 4.419-26.849 5.32-3.836.381-6.759 3.608-6.759 7.463v54.244c0 1.96.768 3.843 2.139 5.245l18.043 18.444c1.495 1.528 2.318 3.546 2.318 5.684 0 4.481-3.646 8.127-8.127 8.127h-43.745c-4.481 0-8.127-3.646-8.127-8.127 0-2.137.823-4.156 2.318-5.684l18.043-18.444c1.371-1.401 2.139-3.284 2.139-5.245v-54.245c0-3.855-2.923-7.083-6.759-7.463-9.073-.901-18.106-2.691-26.849-5.32-.718-.216-1.445-.319-2.161-.319-2.963 0-5.741 1.767-6.928 4.631l-11.089 26.771c-1.583 3.821-5.978 5.642-9.799 4.059-3.82-1.583-5.642-5.979-4.059-9.799l11.091-26.776c1.473-3.556.015-7.65-3.375-9.475-8.023-4.317-15.677-9.441-22.75-15.229-2.982-2.441-7.329-2.224-10.053.501l-38.362 38.364c-1.386 1.386-2.175 3.26-2.196 5.221l-.284 25.801c-.023 2.137-.869 4.146-2.38 5.658-1.535 1.535-3.576 2.38-5.747 2.38-2.17 0-4.211-.845-5.747-2.38l-30.933-30.933c-1.535-1.535-2.38-3.576-2.38-5.746 0-2.171.845-4.212 2.381-5.748 1.511-1.511 3.52-2.356 5.657-2.379l25.801-.284c1.96-.021 3.834-.81 5.221-2.196l38.363-38.363c2.725-2.725 2.941-7.071.501-10.053-5.788-7.073-10.911-14.727-15.229-22.75-1.824-3.39-5.918-4.847-9.475-3.375l-26.776 11.091c-3.822 1.583-8.217-.239-9.799-4.059-1.583-3.821.238-8.217 4.059-9.799l26.771-11.089c3.558-1.474 5.421-5.402 4.312-9.089-2.629-8.742-4.419-17.775-5.32-26.849-.381-3.836-3.608-6.759-7.463-6.759h-54.244c-1.96 0-3.843.768-5.245 2.139l-18.445 18.044c-1.527 1.494-3.545 2.317-5.683 2.317-4.481 0-8.127-3.646-8.127-8.127v-43.745c0-4.481 3.646-8.127 8.127-8.127 2.137 0 4.155.823 5.683 2.318l18.445 18.043c1.401 1.371 3.284 2.139 5.245 2.139h54.245c3.855 0 7.083-2.923 7.463-6.759.901-9.073 2.691-18.106 5.32-26.849 1.109-3.688-.754-7.616-4.312-9.089l-26.771-11.089c-3.821-1.583-5.642-5.979-4.059-9.799s5.978-5.642 9.799-4.059l26.776 11.091c3.554 1.472 7.65.014 9.475-3.375 4.317-8.023 9.441-15.677 15.229-22.75 2.44-2.982 2.224-7.328-.501-10.053l-38.364-38.363c-1.386-1.386-3.26-2.175-5.221-2.196l-25.801-.284c-2.137-.023-4.146-.869-5.658-2.38-1.535-1.535-2.38-3.576-2.38-5.747 0-2.17.845-4.211 2.38-5.747l30.933-30.933c3.169-3.169 8.325-3.168 11.494 0 1.511 1.511 2.356 3.521 2.38 5.658l.284 25.801c.021 1.96.81 3.834 2.196 5.221l38.363 38.363c2.724 2.724 7.07 2.941 10.053.501 7.071-5.787 14.725-10.91 22.749-15.229 3.39-1.824 4.848-5.918 3.375-9.475l-11.091-26.776c-1.583-3.821.238-8.217 4.059-9.799 3.822-1.583 8.217.239 9.799 4.059l11.089 26.771c1.474 3.557 5.4 5.42 9.09 4.312 8.739-2.629 17.772-4.419 26.848-5.32 3.836-.381 6.759-3.608 6.759-7.463v-54.244c0-1.96-.768-3.843-2.139-5.245l-18.044-18.445c-1.494-1.527-2.317-3.545-2.317-5.683 0-4.481 3.646-8.127 8.127-8.127h43.745c4.481 0 8.127 3.646 8.127 8.127 0 2.137-.823 4.155-2.318 5.683l-18.043 18.445c-1.371 1.401-2.139 3.284-2.139 5.245v54.245c0 3.855 2.923 7.083 6.759 7.463 9.076.901 18.109 2.691 26.848 5.32 3.69 1.109 7.617-.754 9.09-4.312l11.089-26.771c1.582-3.821 5.978-5.642 9.799-4.059 3.82 1.583 5.642 5.979 4.059 9.799l-11.091 26.776c-1.473 3.556-.015 7.65 3.375 9.475 8.023 4.318 15.677 9.441 22.749 15.229 2.982 2.441 7.33 2.224 10.053-.501l38.363-38.363c1.386-1.386 2.175-3.26 2.196-5.221l.284-25.801c.023-2.138.869-4.147 2.38-5.658 3.168-3.169 8.325-3.169 11.494 0l30.933 30.933c3.168 3.169 3.168 8.325 0 11.494-1.511 1.511-3.521 2.356-5.658 2.38l-25.801.284c-1.96.021-3.834.81-5.221 2.196l-38.363 38.363c-2.725 2.725-2.941 7.071-.501 10.053 5.787 7.072 10.911 14.726 15.229 22.749 1.824 3.39 5.919 4.847 9.475 3.375l26.776-11.091c3.822-1.583 8.217.238 9.799 4.059 1.583 3.821-.238 8.217-4.059 9.799l-26.771 11.089c-3.558 1.474-5.421 5.402-4.312 9.09 2.629 8.739 4.419 17.772 5.32 26.848.381 3.836 3.608 6.759 7.463 6.759h54.245c1.96 0 3.843-.768 5.245-2.139l18.445-18.044c1.527-1.494 3.545-2.317 5.683-2.317 4.481 0 8.127 3.646 8.127 8.127z"/><path d="m256 128.5c-28.606 0-55.642 9.262-78.184 26.785-3.27 2.542-3.86 7.254-1.318 10.524s7.253 3.86 10.524 1.318c19.885-15.457 43.737-23.627 68.978-23.627 62.033 0 112.5 50.467 112.5 112.5s-50.467 112.5-112.5 112.5-112.5-50.467-112.5-112.5c0-25.241 8.17-49.093 23.628-68.978 2.542-3.271 1.952-7.982-1.318-10.524-3.271-2.542-7.982-1.951-10.524 1.318-17.524 22.542-26.786 49.578-26.786 78.184 0 70.304 57.196 127.5 127.5 127.5s127.5-57.196 127.5-127.5-57.196-127.5-127.5-127.5z"/></g></svg>